<mxfile host="app.diagrams.net" modified="2023-10-24T07:30:15.395Z" agent="Mozilla/5.0 (Windows NT 10.0; Win64; x64; rv:109.0) Gecko/20100101 Firefox/118.0" etag="anwYeb_4oUB1RaSc3MwW" version="22.0.6" type="github">
  <diagram name="Page-1" id="XytU3quus1vIfNqfzDNo">
    <mxGraphModel dx="3639" dy="2204" grid="1" gridSize="10" guides="1" tooltips="1" connect="1" arrows="1" fold="1" page="1" pageScale="1" pageWidth="827" pageHeight="1169" math="0" shadow="0">
      <root>
        <mxCell id="0" />
        <mxCell id="1" parent="0" />
        <mxCell id="vcNwhQFIx9QEsGpkMY-a-10" value="" style="rounded=0;whiteSpace=wrap;html=1;" vertex="1" parent="1">
          <mxGeometry x="-210" y="-240" width="1930" height="3040" as="geometry" />
        </mxCell>
        <mxCell id="vcNwhQFIx9QEsGpkMY-a-2" value="" style="whiteSpace=wrap;html=1;aspect=fixed;fillColor=#6EFF4A;" vertex="1" parent="1">
          <mxGeometry x="-210" y="-235" width="650" height="650" as="geometry" />
        </mxCell>
        <mxCell id="vcNwhQFIx9QEsGpkMY-a-3" value="" style="whiteSpace=wrap;html=1;aspect=fixed;fillColor=#4AFF98;" vertex="1" parent="1">
          <mxGeometry x="1070" y="410" width="650" height="650" as="geometry" />
        </mxCell>
        <mxCell id="vcNwhQFIx9QEsGpkMY-a-4" value="" style="whiteSpace=wrap;html=1;aspect=fixed;fillColor=#8F87FF;" vertex="1" parent="1">
          <mxGeometry x="-210" y="415" width="650" height="650" as="geometry" />
        </mxCell>
        <mxCell id="vcNwhQFIx9QEsGpkMY-a-5" value="" style="whiteSpace=wrap;html=1;aspect=fixed;fillColor=#FF63D6;" vertex="1" parent="1">
          <mxGeometry x="-210" y="1065" width="650" height="650" as="geometry" />
        </mxCell>
        <mxCell id="vcNwhQFIx9QEsGpkMY-a-6" value="" style="whiteSpace=wrap;html=1;aspect=fixed;fillColor=#85CAFF;" vertex="1" parent="1">
          <mxGeometry x="1070" y="-240" width="650" height="650" as="geometry" />
        </mxCell>
        <mxCell id="vcNwhQFIx9QEsGpkMY-a-7" value="" style="rounded=0;whiteSpace=wrap;html=1;fillColor=#3845FF;" vertex="1" parent="1">
          <mxGeometry x="-210" y="2190" width="1930" height="620" as="geometry" />
        </mxCell>
        <mxCell id="vcNwhQFIx9QEsGpkMY-a-12" value="" style="rounded=0;whiteSpace=wrap;html=1;fillColor=#AB794B;" vertex="1" parent="1">
          <mxGeometry x="-210" y="1710" width="940" height="480" as="geometry" />
        </mxCell>
        <mxCell id="vcNwhQFIx9QEsGpkMY-a-13" value="" style="image;html=1;image=img/lib/clip_art/computers/Monitor_128x128.png" vertex="1" parent="1">
          <mxGeometry x="-180" y="300" width="80" height="80" as="geometry" />
        </mxCell>
        <mxCell id="vcNwhQFIx9QEsGpkMY-a-14" value="" style="image;html=1;image=img/lib/clip_art/computers/Monitor_128x128.png" vertex="1" parent="1">
          <mxGeometry x="-180" y="-220" width="80" height="80" as="geometry" />
        </mxCell>
        <mxCell id="vcNwhQFIx9QEsGpkMY-a-15" value="" style="image;html=1;image=img/lib/clip_art/computers/Monitor_128x128.png" vertex="1" parent="1">
          <mxGeometry x="-180" y="130" width="80" height="80" as="geometry" />
        </mxCell>
        <mxCell id="vcNwhQFIx9QEsGpkMY-a-16" value="" style="image;html=1;image=img/lib/clip_art/computers/Printer_Commercial_128x128.png" vertex="1" parent="1">
          <mxGeometry x="-180" y="-40" width="80" height="80" as="geometry" />
        </mxCell>
        <mxCell id="vcNwhQFIx9QEsGpkMY-a-17" value="" style="image;html=1;image=img/lib/clip_art/computers/iPad_128x128.png" vertex="1" parent="1">
          <mxGeometry x="350" y="-220" width="80" height="80" as="geometry" />
        </mxCell>
        <mxCell id="vcNwhQFIx9QEsGpkMY-a-21" value="" style="image;html=1;image=img/lib/clip_art/computers/Laptop_128x128.png" vertex="1" parent="1">
          <mxGeometry x="130" y="-220" width="80" height="80" as="geometry" />
        </mxCell>
        <mxCell id="vcNwhQFIx9QEsGpkMY-a-22" value="" style="image;html=1;image=img/lib/clip_art/networking/Repeater_128x128.png" vertex="1" parent="1">
          <mxGeometry x="350" y="320" width="80" height="80" as="geometry" />
        </mxCell>
        <mxCell id="vcNwhQFIx9QEsGpkMY-a-23" value="" style="image;html=1;image=img/lib/clip_art/networking/Switch_128x128.png" vertex="1" parent="1">
          <mxGeometry x="90" y="330" width="80" height="80" as="geometry" />
        </mxCell>
        <mxCell id="vcNwhQFIx9QEsGpkMY-a-24" value="" style="image;html=1;image=img/lib/clip_art/people/Suit_Man_Green_Black_128x128.png" vertex="1" parent="1">
          <mxGeometry x="-90" y="290" width="80" height="80" as="geometry" />
        </mxCell>
        <mxCell id="vcNwhQFIx9QEsGpkMY-a-25" value="" style="image;html=1;image=img/lib/clip_art/people/Suit_Woman_Green_Black_128x128.png" vertex="1" parent="1">
          <mxGeometry x="-90" y="110" width="80" height="80" as="geometry" />
        </mxCell>
        <mxCell id="vcNwhQFIx9QEsGpkMY-a-26" value="" style="image;html=1;image=img/lib/clip_art/people/Suit_Woman_128x128.png" vertex="1" parent="1">
          <mxGeometry x="-90" y="-220" width="80" height="80" as="geometry" />
        </mxCell>
        <mxCell id="vcNwhQFIx9QEsGpkMY-a-27" value="" style="image;html=1;image=img/lib/clip_art/people/Suit_Man_Green_128x128.png" vertex="1" parent="1">
          <mxGeometry x="1170" y="30" width="80" height="80" as="geometry" />
        </mxCell>
        <mxCell id="vcNwhQFIx9QEsGpkMY-a-28" value="" style="endArrow=none;html=1;rounded=0;" edge="1" parent="1" source="vcNwhQFIx9QEsGpkMY-a-13" target="vcNwhQFIx9QEsGpkMY-a-23">
          <mxGeometry width="50" height="50" relative="1" as="geometry">
            <mxPoint x="180" y="210" as="sourcePoint" />
            <mxPoint x="230" y="160" as="targetPoint" />
          </mxGeometry>
        </mxCell>
        <mxCell id="vcNwhQFIx9QEsGpkMY-a-29" value="" style="endArrow=none;html=1;rounded=0;" edge="1" parent="1" source="vcNwhQFIx9QEsGpkMY-a-15" target="vcNwhQFIx9QEsGpkMY-a-23">
          <mxGeometry width="50" height="50" relative="1" as="geometry">
            <mxPoint x="180" y="210" as="sourcePoint" />
            <mxPoint x="230" y="160" as="targetPoint" />
          </mxGeometry>
        </mxCell>
        <mxCell id="vcNwhQFIx9QEsGpkMY-a-30" value="" style="endArrow=none;html=1;rounded=0;" edge="1" parent="1" source="vcNwhQFIx9QEsGpkMY-a-14" target="vcNwhQFIx9QEsGpkMY-a-23">
          <mxGeometry width="50" height="50" relative="1" as="geometry">
            <mxPoint x="180" y="210" as="sourcePoint" />
            <mxPoint x="230" y="160" as="targetPoint" />
          </mxGeometry>
        </mxCell>
        <mxCell id="vcNwhQFIx9QEsGpkMY-a-31" value="" style="endArrow=none;html=1;rounded=0;" edge="1" parent="1" source="vcNwhQFIx9QEsGpkMY-a-16" target="vcNwhQFIx9QEsGpkMY-a-23">
          <mxGeometry width="50" height="50" relative="1" as="geometry">
            <mxPoint x="180" y="210" as="sourcePoint" />
            <mxPoint x="230" y="160" as="targetPoint" />
          </mxGeometry>
        </mxCell>
        <mxCell id="vcNwhQFIx9QEsGpkMY-a-33" value="" style="endArrow=none;html=1;rounded=0;" edge="1" parent="1" source="vcNwhQFIx9QEsGpkMY-a-23" target="vcNwhQFIx9QEsGpkMY-a-22">
          <mxGeometry width="50" height="50" relative="1" as="geometry">
            <mxPoint x="180" y="210" as="sourcePoint" />
            <mxPoint x="230" y="160" as="targetPoint" />
          </mxGeometry>
        </mxCell>
        <mxCell id="vcNwhQFIx9QEsGpkMY-a-35" value="" style="endArrow=none;dashed=1;html=1;dashPattern=1 3;strokeWidth=2;rounded=0;" edge="1" parent="1" source="vcNwhQFIx9QEsGpkMY-a-22" target="vcNwhQFIx9QEsGpkMY-a-17">
          <mxGeometry width="50" height="50" relative="1" as="geometry">
            <mxPoint x="180" y="210" as="sourcePoint" />
            <mxPoint x="230" y="160" as="targetPoint" />
          </mxGeometry>
        </mxCell>
        <mxCell id="vcNwhQFIx9QEsGpkMY-a-36" value="" style="endArrow=none;dashed=1;html=1;dashPattern=1 3;strokeWidth=2;rounded=0;" edge="1" parent="1" source="vcNwhQFIx9QEsGpkMY-a-166" target="vcNwhQFIx9QEsGpkMY-a-152">
          <mxGeometry width="50" height="50" relative="1" as="geometry">
            <mxPoint x="523.7037037037039" y="1690" as="sourcePoint" />
            <mxPoint x="336.29629629629653" y="1230" as="targetPoint" />
          </mxGeometry>
        </mxCell>
        <mxCell id="vcNwhQFIx9QEsGpkMY-a-92" value="" style="image;html=1;image=img/lib/clip_art/computers/Monitor_128x128.png" vertex="1" parent="1">
          <mxGeometry x="-180" y="450" width="80" height="80" as="geometry" />
        </mxCell>
        <mxCell id="vcNwhQFIx9QEsGpkMY-a-93" value="" style="image;html=1;image=img/lib/clip_art/computers/Printer_Commercial_128x128.png" vertex="1" parent="1">
          <mxGeometry x="-180" y="600" width="80" height="80" as="geometry" />
        </mxCell>
        <mxCell id="vcNwhQFIx9QEsGpkMY-a-94" value="" style="image;html=1;image=img/lib/clip_art/computers/Monitor_128x128.png" vertex="1" parent="1">
          <mxGeometry x="-180" y="960" width="80" height="80" as="geometry" />
        </mxCell>
        <mxCell id="vcNwhQFIx9QEsGpkMY-a-95" value="" style="image;html=1;image=img/lib/clip_art/computers/Monitor_128x128.png" vertex="1" parent="1">
          <mxGeometry x="-180" y="770" width="80" height="80" as="geometry" />
        </mxCell>
        <mxCell id="vcNwhQFIx9QEsGpkMY-a-96" value="" style="image;html=1;image=img/lib/clip_art/computers/Monitor_128x128.png" vertex="1" parent="1">
          <mxGeometry x="-180" y="1120" width="80" height="80" as="geometry" />
        </mxCell>
        <mxCell id="vcNwhQFIx9QEsGpkMY-a-98" value="" style="image;html=1;image=img/lib/clip_art/computers/Monitor_128x128.png" vertex="1" parent="1">
          <mxGeometry x="-180" y="1280" width="80" height="80" as="geometry" />
        </mxCell>
        <mxCell id="vcNwhQFIx9QEsGpkMY-a-99" value="" style="image;html=1;image=img/lib/clip_art/computers/Monitor_128x128.png" vertex="1" parent="1">
          <mxGeometry x="-180" y="1600" width="80" height="80" as="geometry" />
        </mxCell>
        <mxCell id="vcNwhQFIx9QEsGpkMY-a-100" value="" style="image;html=1;image=img/lib/clip_art/computers/Monitor_128x128.png;rotation=0;" vertex="1" parent="1">
          <mxGeometry x="1070" y="420" width="80" height="80" as="geometry" />
        </mxCell>
        <mxCell id="vcNwhQFIx9QEsGpkMY-a-101" value="" style="image;html=1;image=img/lib/clip_art/computers/Monitor_128x128.png" vertex="1" parent="1">
          <mxGeometry x="1355" y="415" width="80" height="80" as="geometry" />
        </mxCell>
        <mxCell id="vcNwhQFIx9QEsGpkMY-a-102" value="" style="image;html=1;image=img/lib/clip_art/computers/Monitor_128x128.png" vertex="1" parent="1">
          <mxGeometry x="1640" y="420" width="80" height="80" as="geometry" />
        </mxCell>
        <mxCell id="vcNwhQFIx9QEsGpkMY-a-103" value="" style="image;html=1;image=img/lib/clip_art/computers/Monitor_128x128.png" vertex="1" parent="1">
          <mxGeometry x="1340" y="-235" width="80" height="80" as="geometry" />
        </mxCell>
        <mxCell id="vcNwhQFIx9QEsGpkMY-a-104" value="" style="image;html=1;image=img/lib/clip_art/computers/Monitor_128x128.png" vertex="1" parent="1">
          <mxGeometry x="1640" y="-235" width="80" height="80" as="geometry" />
        </mxCell>
        <mxCell id="vcNwhQFIx9QEsGpkMY-a-105" value="" style="image;html=1;image=img/lib/clip_art/computers/Monitor_128x128.png" vertex="1" parent="1">
          <mxGeometry x="1070" y="-240" width="80" height="80" as="geometry" />
        </mxCell>
        <mxCell id="vcNwhQFIx9QEsGpkMY-a-107" value="" style="image;html=1;image=img/lib/clip_art/computers/Printer_Commercial_128x128.png" vertex="1" parent="1">
          <mxGeometry x="-180" y="1440" width="80" height="80" as="geometry" />
        </mxCell>
        <mxCell id="vcNwhQFIx9QEsGpkMY-a-109" value="" style="image;html=1;image=img/lib/clip_art/computers/Printer_Commercial_128x128.png" vertex="1" parent="1">
          <mxGeometry x="1640" y="660" width="80" height="80" as="geometry" />
        </mxCell>
        <mxCell id="vcNwhQFIx9QEsGpkMY-a-110" value="" style="image;html=1;image=img/lib/clip_art/computers/Printer_Commercial_128x128.png" vertex="1" parent="1">
          <mxGeometry x="1630" y="30" width="80" height="80" as="geometry" />
        </mxCell>
        <mxCell id="vcNwhQFIx9QEsGpkMY-a-111" value="" style="image;html=1;image=img/lib/clip_art/computers/Laptop_128x128.png" vertex="1" parent="1">
          <mxGeometry x="1090" y="45" width="80" height="80" as="geometry" />
        </mxCell>
        <mxCell id="vcNwhQFIx9QEsGpkMY-a-112" value="" style="image;html=1;image=img/lib/clip_art/computers/iPad_128x128.png" vertex="1" parent="1">
          <mxGeometry x="1080" y="160" width="80" height="80" as="geometry" />
        </mxCell>
        <mxCell id="vcNwhQFIx9QEsGpkMY-a-113" value="" style="image;html=1;image=img/lib/clip_art/networking/Switch_128x128.png" vertex="1" parent="1">
          <mxGeometry x="1355" y="330" width="80" height="80" as="geometry" />
        </mxCell>
        <mxCell id="vcNwhQFIx9QEsGpkMY-a-114" value="" style="image;html=1;image=img/lib/clip_art/networking/Repeater_128x128.png" vertex="1" parent="1">
          <mxGeometry x="1640" y="330" width="80" height="80" as="geometry" />
        </mxCell>
        <mxCell id="vcNwhQFIx9QEsGpkMY-a-115" value="" style="endArrow=none;dashed=1;html=1;dashPattern=1 3;strokeWidth=2;rounded=0;" edge="1" parent="1" source="vcNwhQFIx9QEsGpkMY-a-114" target="vcNwhQFIx9QEsGpkMY-a-112">
          <mxGeometry width="50" height="50" relative="1" as="geometry">
            <mxPoint x="1010" y="210" as="sourcePoint" />
            <mxPoint x="1060" y="160" as="targetPoint" />
          </mxGeometry>
        </mxCell>
        <mxCell id="vcNwhQFIx9QEsGpkMY-a-116" value="" style="endArrow=none;dashed=1;html=1;dashPattern=1 3;strokeWidth=2;rounded=0;" edge="1" parent="1" source="vcNwhQFIx9QEsGpkMY-a-114" target="vcNwhQFIx9QEsGpkMY-a-111">
          <mxGeometry width="50" height="50" relative="1" as="geometry">
            <mxPoint x="1010" y="210" as="sourcePoint" />
            <mxPoint x="1060" y="160" as="targetPoint" />
          </mxGeometry>
        </mxCell>
        <mxCell id="vcNwhQFIx9QEsGpkMY-a-117" value="" style="endArrow=none;html=1;rounded=0;" edge="1" parent="1" source="vcNwhQFIx9QEsGpkMY-a-113" target="vcNwhQFIx9QEsGpkMY-a-114">
          <mxGeometry width="50" height="50" relative="1" as="geometry">
            <mxPoint x="1010" y="210" as="sourcePoint" />
            <mxPoint x="1060" y="160" as="targetPoint" />
          </mxGeometry>
        </mxCell>
        <mxCell id="vcNwhQFIx9QEsGpkMY-a-118" value="" style="endArrow=none;html=1;rounded=0;" edge="1" parent="1" source="vcNwhQFIx9QEsGpkMY-a-113" target="vcNwhQFIx9QEsGpkMY-a-104">
          <mxGeometry width="50" height="50" relative="1" as="geometry">
            <mxPoint x="1010" y="210" as="sourcePoint" />
            <mxPoint x="1060" y="160" as="targetPoint" />
          </mxGeometry>
        </mxCell>
        <mxCell id="vcNwhQFIx9QEsGpkMY-a-119" value="" style="endArrow=none;html=1;rounded=0;" edge="1" parent="1" source="vcNwhQFIx9QEsGpkMY-a-127" target="vcNwhQFIx9QEsGpkMY-a-103">
          <mxGeometry width="50" height="50" relative="1" as="geometry">
            <mxPoint x="1010" y="210" as="sourcePoint" />
            <mxPoint x="1060" y="160" as="targetPoint" />
          </mxGeometry>
        </mxCell>
        <mxCell id="vcNwhQFIx9QEsGpkMY-a-121" value="" style="endArrow=none;html=1;rounded=0;" edge="1" parent="1" source="vcNwhQFIx9QEsGpkMY-a-113" target="vcNwhQFIx9QEsGpkMY-a-105">
          <mxGeometry width="50" height="50" relative="1" as="geometry">
            <mxPoint x="1010" y="210" as="sourcePoint" />
            <mxPoint x="1060" y="160" as="targetPoint" />
          </mxGeometry>
        </mxCell>
        <mxCell id="vcNwhQFIx9QEsGpkMY-a-122" value="" style="endArrow=none;html=1;rounded=0;" edge="1" parent="1" source="vcNwhQFIx9QEsGpkMY-a-113" target="vcNwhQFIx9QEsGpkMY-a-110">
          <mxGeometry width="50" height="50" relative="1" as="geometry">
            <mxPoint x="1010" y="210" as="sourcePoint" />
            <mxPoint x="1060" y="160" as="targetPoint" />
          </mxGeometry>
        </mxCell>
        <mxCell id="vcNwhQFIx9QEsGpkMY-a-123" value="" style="image;html=1;image=img/lib/clip_art/people/Suit_Man_Green_128x128.png" vertex="1" parent="1">
          <mxGeometry x="130" y="-120" width="80" height="80" as="geometry" />
        </mxCell>
        <mxCell id="vcNwhQFIx9QEsGpkMY-a-124" value="" style="image;html=1;image=img/lib/clip_art/people/Suit_Woman_Green_Black_128x128.png" vertex="1" parent="1">
          <mxGeometry x="1080" y="-150" width="80" height="80" as="geometry" />
        </mxCell>
        <mxCell id="vcNwhQFIx9QEsGpkMY-a-125" value="" style="image;html=1;image=img/lib/clip_art/people/Suit_Woman_128x128.png" vertex="1" parent="1">
          <mxGeometry x="1640" y="-150" width="80" height="80" as="geometry" />
        </mxCell>
        <mxCell id="vcNwhQFIx9QEsGpkMY-a-126" value="" style="image;html=1;image=img/lib/clip_art/people/Suit_Man_Green_Black_128x128.png" vertex="1" parent="1">
          <mxGeometry x="-80" y="450" width="80" height="80" as="geometry" />
        </mxCell>
        <mxCell id="vcNwhQFIx9QEsGpkMY-a-129" value="" style="endArrow=none;html=1;rounded=0;" edge="1" parent="1" source="vcNwhQFIx9QEsGpkMY-a-113" target="vcNwhQFIx9QEsGpkMY-a-127">
          <mxGeometry width="50" height="50" relative="1" as="geometry">
            <mxPoint x="1394" y="330" as="sourcePoint" />
            <mxPoint x="1381" y="-155" as="targetPoint" />
          </mxGeometry>
        </mxCell>
        <mxCell id="vcNwhQFIx9QEsGpkMY-a-127" value="" style="image;html=1;image=img/lib/clip_art/people/Suit_Man_Green_Black_128x128.png" vertex="1" parent="1">
          <mxGeometry x="1340" y="-150" width="80" height="80" as="geometry" />
        </mxCell>
        <mxCell id="vcNwhQFIx9QEsGpkMY-a-130" value="" style="image;html=1;image=img/lib/clip_art/networking/Repeater_128x128.png" vertex="1" parent="1">
          <mxGeometry x="1640" y="980" width="80" height="80" as="geometry" />
        </mxCell>
        <mxCell id="vcNwhQFIx9QEsGpkMY-a-131" value="" style="image;html=1;image=img/lib/clip_art/networking/Switch_128x128.png" vertex="1" parent="1">
          <mxGeometry x="1355" y="980" width="80" height="80" as="geometry" />
        </mxCell>
        <mxCell id="vcNwhQFIx9QEsGpkMY-a-132" value="" style="image;html=1;image=img/lib/clip_art/computers/iPad_128x128.png" vertex="1" parent="1">
          <mxGeometry x="1080" y="730" width="80" height="80" as="geometry" />
        </mxCell>
        <mxCell id="vcNwhQFIx9QEsGpkMY-a-134" value="" style="image;html=1;image=img/lib/clip_art/computers/Laptop_128x128.png" vertex="1" parent="1">
          <mxGeometry x="1080" y="630" width="80" height="80" as="geometry" />
        </mxCell>
        <mxCell id="vcNwhQFIx9QEsGpkMY-a-135" value="" style="image;html=1;image=img/lib/clip_art/people/Suit_Man_Green_128x128.png" vertex="1" parent="1">
          <mxGeometry x="1170" y="660" width="80" height="80" as="geometry" />
        </mxCell>
        <mxCell id="vcNwhQFIx9QEsGpkMY-a-136" value="" style="image;html=1;image=img/lib/clip_art/people/Suit_Man_Green_Black_128x128.png" vertex="1" parent="1">
          <mxGeometry x="1630" y="520" width="80" height="80" as="geometry" />
        </mxCell>
        <mxCell id="vcNwhQFIx9QEsGpkMY-a-139" value="" style="image;html=1;image=img/lib/clip_art/people/Suit_Woman_128x128.png" vertex="1" parent="1">
          <mxGeometry x="1080" y="520" width="80" height="80" as="geometry" />
        </mxCell>
        <mxCell id="vcNwhQFIx9QEsGpkMY-a-140" value="" style="image;html=1;image=img/lib/clip_art/people/Suit_Woman_Green_Black_128x128.png" vertex="1" parent="1">
          <mxGeometry x="1355" y="520" width="80" height="80" as="geometry" />
        </mxCell>
        <mxCell id="vcNwhQFIx9QEsGpkMY-a-142" value="" style="endArrow=none;dashed=1;html=1;dashPattern=1 3;strokeWidth=2;rounded=0;" edge="1" parent="1" source="vcNwhQFIx9QEsGpkMY-a-132" target="vcNwhQFIx9QEsGpkMY-a-130">
          <mxGeometry width="50" height="50" relative="1" as="geometry">
            <mxPoint x="1450" y="410" as="sourcePoint" />
            <mxPoint x="1500" y="360" as="targetPoint" />
          </mxGeometry>
        </mxCell>
        <mxCell id="vcNwhQFIx9QEsGpkMY-a-143" value="" style="endArrow=none;dashed=1;html=1;dashPattern=1 3;strokeWidth=2;rounded=0;" edge="1" parent="1" source="vcNwhQFIx9QEsGpkMY-a-134" target="vcNwhQFIx9QEsGpkMY-a-130">
          <mxGeometry width="50" height="50" relative="1" as="geometry">
            <mxPoint x="1450" y="1020" as="sourcePoint" />
            <mxPoint x="1500" y="970" as="targetPoint" />
          </mxGeometry>
        </mxCell>
        <mxCell id="vcNwhQFIx9QEsGpkMY-a-144" value="" style="endArrow=none;html=1;rounded=0;" edge="1" parent="1" source="vcNwhQFIx9QEsGpkMY-a-131" target="vcNwhQFIx9QEsGpkMY-a-130">
          <mxGeometry width="50" height="50" relative="1" as="geometry">
            <mxPoint x="1450" y="1020" as="sourcePoint" />
            <mxPoint x="1500" y="970" as="targetPoint" />
          </mxGeometry>
        </mxCell>
        <mxCell id="vcNwhQFIx9QEsGpkMY-a-145" value="" style="endArrow=none;html=1;rounded=0;" edge="1" parent="1" source="vcNwhQFIx9QEsGpkMY-a-131" target="vcNwhQFIx9QEsGpkMY-a-109">
          <mxGeometry width="50" height="50" relative="1" as="geometry">
            <mxPoint x="1450" y="1020" as="sourcePoint" />
            <mxPoint x="1500" y="970" as="targetPoint" />
          </mxGeometry>
        </mxCell>
        <mxCell id="vcNwhQFIx9QEsGpkMY-a-146" value="" style="endArrow=none;html=1;rounded=0;entryX=0.25;entryY=1;entryDx=0;entryDy=0;" edge="1" parent="1" source="vcNwhQFIx9QEsGpkMY-a-131" target="vcNwhQFIx9QEsGpkMY-a-102">
          <mxGeometry width="50" height="50" relative="1" as="geometry">
            <mxPoint x="1450" y="1020" as="sourcePoint" />
            <mxPoint x="1500" y="970" as="targetPoint" />
          </mxGeometry>
        </mxCell>
        <mxCell id="vcNwhQFIx9QEsGpkMY-a-147" value="" style="endArrow=none;html=1;rounded=0;" edge="1" parent="1" source="vcNwhQFIx9QEsGpkMY-a-131" target="vcNwhQFIx9QEsGpkMY-a-101">
          <mxGeometry width="50" height="50" relative="1" as="geometry">
            <mxPoint x="1450" y="1020" as="sourcePoint" />
            <mxPoint x="1500" y="970" as="targetPoint" />
          </mxGeometry>
        </mxCell>
        <mxCell id="vcNwhQFIx9QEsGpkMY-a-148" value="" style="endArrow=none;html=1;rounded=0;" edge="1" parent="1" source="vcNwhQFIx9QEsGpkMY-a-131" target="vcNwhQFIx9QEsGpkMY-a-100">
          <mxGeometry width="50" height="50" relative="1" as="geometry">
            <mxPoint x="1450" y="1020" as="sourcePoint" />
            <mxPoint x="1500" y="970" as="targetPoint" />
          </mxGeometry>
        </mxCell>
        <mxCell id="vcNwhQFIx9QEsGpkMY-a-149" value="" style="image;html=1;image=img/lib/clip_art/computers/Laptop_128x128.png" vertex="1" parent="1">
          <mxGeometry x="130" y="1120" width="80" height="80" as="geometry" />
        </mxCell>
        <mxCell id="vcNwhQFIx9QEsGpkMY-a-151" value="" style="image;html=1;image=img/lib/clip_art/computers/Laptop_128x128.png" vertex="1" parent="1">
          <mxGeometry x="130" y="450" width="80" height="80" as="geometry" />
        </mxCell>
        <mxCell id="vcNwhQFIx9QEsGpkMY-a-152" value="" style="image;html=1;image=img/lib/clip_art/computers/iPad_128x128.png" vertex="1" parent="1">
          <mxGeometry x="350" y="1120" width="80" height="80" as="geometry" />
        </mxCell>
        <mxCell id="vcNwhQFIx9QEsGpkMY-a-153" value="" style="image;html=1;image=img/lib/clip_art/computers/iPad_128x128.png" vertex="1" parent="1">
          <mxGeometry x="350" y="450" width="80" height="80" as="geometry" />
        </mxCell>
        <mxCell id="vcNwhQFIx9QEsGpkMY-a-154" value="" style="image;html=1;image=img/lib/clip_art/networking/Repeater_128x128.png" vertex="1" parent="1">
          <mxGeometry x="350" y="960" width="80" height="80" as="geometry" />
        </mxCell>
        <mxCell id="vcNwhQFIx9QEsGpkMY-a-155" value="" style="image;html=1;image=img/lib/clip_art/networking/Switch_128x128.png" vertex="1" parent="1">
          <mxGeometry x="75" y="960" width="80" height="80" as="geometry" />
        </mxCell>
        <mxCell id="vcNwhQFIx9QEsGpkMY-a-156" value="" style="image;html=1;image=img/lib/clip_art/people/Suit_Woman_128x128.png" vertex="1" parent="1">
          <mxGeometry x="130" y="560" width="80" height="80" as="geometry" />
        </mxCell>
        <mxCell id="vcNwhQFIx9QEsGpkMY-a-157" value="" style="image;html=1;image=img/lib/clip_art/people/Suit_Man_Green_128x128.png" vertex="1" parent="1">
          <mxGeometry x="-80" y="960" width="80" height="80" as="geometry" />
        </mxCell>
        <mxCell id="vcNwhQFIx9QEsGpkMY-a-158" value="" style="image;html=1;image=img/lib/clip_art/people/Suit_Woman_Green_Black_128x128.png" vertex="1" parent="1">
          <mxGeometry x="-80" y="770" width="80" height="80" as="geometry" />
        </mxCell>
        <mxCell id="vcNwhQFIx9QEsGpkMY-a-159" value="" style="endArrow=none;dashed=1;html=1;dashPattern=1 3;strokeWidth=2;rounded=0;" edge="1" parent="1" source="vcNwhQFIx9QEsGpkMY-a-153" target="vcNwhQFIx9QEsGpkMY-a-154">
          <mxGeometry width="50" height="50" relative="1" as="geometry">
            <mxPoint x="640" y="550" as="sourcePoint" />
            <mxPoint x="690" y="500" as="targetPoint" />
          </mxGeometry>
        </mxCell>
        <mxCell id="vcNwhQFIx9QEsGpkMY-a-160" value="" style="endArrow=none;dashed=1;html=1;dashPattern=1 3;strokeWidth=2;rounded=0;" edge="1" parent="1" source="vcNwhQFIx9QEsGpkMY-a-151" target="vcNwhQFIx9QEsGpkMY-a-154">
          <mxGeometry width="50" height="50" relative="1" as="geometry">
            <mxPoint x="640" y="550" as="sourcePoint" />
            <mxPoint x="690" y="500" as="targetPoint" />
          </mxGeometry>
        </mxCell>
        <mxCell id="vcNwhQFIx9QEsGpkMY-a-161" value="" style="endArrow=none;html=1;rounded=0;" edge="1" parent="1" source="vcNwhQFIx9QEsGpkMY-a-155" target="vcNwhQFIx9QEsGpkMY-a-154">
          <mxGeometry width="50" height="50" relative="1" as="geometry">
            <mxPoint x="640" y="550" as="sourcePoint" />
            <mxPoint x="690" y="500" as="targetPoint" />
          </mxGeometry>
        </mxCell>
        <mxCell id="vcNwhQFIx9QEsGpkMY-a-162" value="" style="endArrow=none;html=1;rounded=0;" edge="1" parent="1" source="vcNwhQFIx9QEsGpkMY-a-94" target="vcNwhQFIx9QEsGpkMY-a-155">
          <mxGeometry width="50" height="50" relative="1" as="geometry">
            <mxPoint x="640" y="550" as="sourcePoint" />
            <mxPoint x="690" y="500" as="targetPoint" />
          </mxGeometry>
        </mxCell>
        <mxCell id="vcNwhQFIx9QEsGpkMY-a-163" value="" style="endArrow=none;html=1;rounded=0;" edge="1" parent="1" source="vcNwhQFIx9QEsGpkMY-a-95" target="vcNwhQFIx9QEsGpkMY-a-155">
          <mxGeometry width="50" height="50" relative="1" as="geometry">
            <mxPoint x="640" y="550" as="sourcePoint" />
            <mxPoint x="690" y="500" as="targetPoint" />
          </mxGeometry>
        </mxCell>
        <mxCell id="vcNwhQFIx9QEsGpkMY-a-164" value="" style="endArrow=none;html=1;rounded=0;exitX=1;exitY=0.5;exitDx=0;exitDy=0;" edge="1" parent="1" source="vcNwhQFIx9QEsGpkMY-a-92" target="vcNwhQFIx9QEsGpkMY-a-155">
          <mxGeometry width="50" height="50" relative="1" as="geometry">
            <mxPoint x="640" y="550" as="sourcePoint" />
            <mxPoint x="690" y="500" as="targetPoint" />
          </mxGeometry>
        </mxCell>
        <mxCell id="vcNwhQFIx9QEsGpkMY-a-165" value="" style="endArrow=none;html=1;rounded=0;exitX=0.5;exitY=1;exitDx=0;exitDy=0;" edge="1" parent="1" source="vcNwhQFIx9QEsGpkMY-a-93" target="vcNwhQFIx9QEsGpkMY-a-155">
          <mxGeometry width="50" height="50" relative="1" as="geometry">
            <mxPoint x="640" y="550" as="sourcePoint" />
            <mxPoint x="690" y="500" as="targetPoint" />
          </mxGeometry>
        </mxCell>
        <mxCell id="vcNwhQFIx9QEsGpkMY-a-166" value="" style="image;html=1;image=img/lib/clip_art/networking/Repeater_128x128.png" vertex="1" parent="1">
          <mxGeometry x="350" y="1600" width="80" height="80" as="geometry" />
        </mxCell>
        <mxCell id="vcNwhQFIx9QEsGpkMY-a-167" value="" style="image;html=1;image=img/lib/clip_art/networking/Switch_128x128.png" vertex="1" parent="1">
          <mxGeometry x="75" y="1600" width="80" height="80" as="geometry" />
        </mxCell>
        <mxCell id="vcNwhQFIx9QEsGpkMY-a-168" value="" style="image;html=1;image=img/lib/clip_art/people/Suit_Woman_Green_Black_128x128.png" vertex="1" parent="1">
          <mxGeometry x="130" y="1240" width="80" height="80" as="geometry" />
        </mxCell>
        <mxCell id="vcNwhQFIx9QEsGpkMY-a-169" value="" style="image;html=1;image=img/lib/clip_art/people/Suit_Man_Green_Black_128x128.png" vertex="1" parent="1">
          <mxGeometry x="-90" y="1280" width="80" height="80" as="geometry" />
        </mxCell>
        <mxCell id="vcNwhQFIx9QEsGpkMY-a-170" value="" style="image;html=1;image=img/lib/clip_art/people/Suit_Man_Green_128x128.png" vertex="1" parent="1">
          <mxGeometry x="-90" y="1120" width="80" height="80" as="geometry" />
        </mxCell>
        <mxCell id="vcNwhQFIx9QEsGpkMY-a-171" value="" style="image;html=1;image=img/lib/clip_art/people/Suit_Woman_128x128.png" vertex="1" parent="1">
          <mxGeometry x="-90" y="1600" width="80" height="80" as="geometry" />
        </mxCell>
        <mxCell id="vcNwhQFIx9QEsGpkMY-a-172" value="" style="endArrow=none;dashed=1;html=1;dashPattern=1 3;strokeWidth=2;rounded=0;exitX=0.25;exitY=0;exitDx=0;exitDy=0;" edge="1" parent="1" source="vcNwhQFIx9QEsGpkMY-a-166" target="vcNwhQFIx9QEsGpkMY-a-149">
          <mxGeometry width="50" height="50" relative="1" as="geometry">
            <mxPoint x="660" y="1500" as="sourcePoint" />
            <mxPoint x="710" y="1450" as="targetPoint" />
          </mxGeometry>
        </mxCell>
        <mxCell id="vcNwhQFIx9QEsGpkMY-a-173" value="" style="endArrow=none;html=1;rounded=0;" edge="1" parent="1" source="vcNwhQFIx9QEsGpkMY-a-167" target="vcNwhQFIx9QEsGpkMY-a-166">
          <mxGeometry width="50" height="50" relative="1" as="geometry">
            <mxPoint x="660" y="1500" as="sourcePoint" />
            <mxPoint x="710" y="1450" as="targetPoint" />
          </mxGeometry>
        </mxCell>
        <mxCell id="vcNwhQFIx9QEsGpkMY-a-174" value="" style="endArrow=none;html=1;rounded=0;" edge="1" parent="1" source="vcNwhQFIx9QEsGpkMY-a-99" target="vcNwhQFIx9QEsGpkMY-a-167">
          <mxGeometry width="50" height="50" relative="1" as="geometry">
            <mxPoint x="660" y="1500" as="sourcePoint" />
            <mxPoint x="710" y="1450" as="targetPoint" />
          </mxGeometry>
        </mxCell>
        <mxCell id="vcNwhQFIx9QEsGpkMY-a-175" value="" style="endArrow=none;html=1;rounded=0;" edge="1" parent="1" source="vcNwhQFIx9QEsGpkMY-a-107" target="vcNwhQFIx9QEsGpkMY-a-167">
          <mxGeometry width="50" height="50" relative="1" as="geometry">
            <mxPoint x="660" y="1500" as="sourcePoint" />
            <mxPoint x="710" y="1450" as="targetPoint" />
          </mxGeometry>
        </mxCell>
        <mxCell id="vcNwhQFIx9QEsGpkMY-a-176" value="" style="endArrow=none;html=1;rounded=0;" edge="1" parent="1" source="vcNwhQFIx9QEsGpkMY-a-98" target="vcNwhQFIx9QEsGpkMY-a-167">
          <mxGeometry width="50" height="50" relative="1" as="geometry">
            <mxPoint x="660" y="1500" as="sourcePoint" />
            <mxPoint x="710" y="1450" as="targetPoint" />
          </mxGeometry>
        </mxCell>
        <mxCell id="vcNwhQFIx9QEsGpkMY-a-177" value="" style="endArrow=none;html=1;rounded=0;" edge="1" parent="1" source="vcNwhQFIx9QEsGpkMY-a-96" target="vcNwhQFIx9QEsGpkMY-a-167">
          <mxGeometry width="50" height="50" relative="1" as="geometry">
            <mxPoint x="660" y="1500" as="sourcePoint" />
            <mxPoint x="710" y="1450" as="targetPoint" />
          </mxGeometry>
        </mxCell>
        <mxCell id="vcNwhQFIx9QEsGpkMY-a-178" value="" style="image;html=1;image=img/lib/clip_art/computers/Server_Tower_128x128.png" vertex="1" parent="1">
          <mxGeometry x="-205" y="2190" width="280" height="320" as="geometry" />
        </mxCell>
        <mxCell id="vcNwhQFIx9QEsGpkMY-a-180" value="" style="image;html=1;image=img/lib/clip_art/computers/Server_128x128.png" vertex="1" parent="1">
          <mxGeometry x="395" y="1950" width="224" height="180" as="geometry" />
        </mxCell>
        <mxCell id="vcNwhQFIx9QEsGpkMY-a-181" value="" style="image;html=1;image=img/lib/clip_art/computers/Server_Rack_Partial_128x128.png" vertex="1" parent="1">
          <mxGeometry x="-170" y="1740" width="260" height="400" as="geometry" />
        </mxCell>
        <mxCell id="vcNwhQFIx9QEsGpkMY-a-182" value="" style="image;html=1;image=img/lib/clip_art/networking/Router_128x128.png" vertex="1" parent="1">
          <mxGeometry x="400" y="1760" width="214" height="166" as="geometry" />
        </mxCell>
        <mxCell id="vcNwhQFIx9QEsGpkMY-a-185" value="" style="shape=flexArrow;endArrow=classic;html=1;rounded=0;exitX=0;exitY=0.5;exitDx=0;exitDy=0;entryX=1;entryY=0.25;entryDx=0;entryDy=0;" edge="1" parent="1" source="vcNwhQFIx9QEsGpkMY-a-182" target="vcNwhQFIx9QEsGpkMY-a-181">
          <mxGeometry width="50" height="50" relative="1" as="geometry">
            <mxPoint x="320" y="2320" as="sourcePoint" />
            <mxPoint x="370" y="2270" as="targetPoint" />
          </mxGeometry>
        </mxCell>
        <mxCell id="vcNwhQFIx9QEsGpkMY-a-188" value="" style="shape=flexArrow;endArrow=classic;html=1;rounded=0;exitX=0;exitY=0.5;exitDx=0;exitDy=0;endWidth=40;endSize=5.72;" edge="1" parent="1" source="vcNwhQFIx9QEsGpkMY-a-180" target="vcNwhQFIx9QEsGpkMY-a-181">
          <mxGeometry width="50" height="50" relative="1" as="geometry">
            <mxPoint x="385" y="2013" as="sourcePoint" />
            <mxPoint x="75" y="2010" as="targetPoint" />
          </mxGeometry>
        </mxCell>
        <mxCell id="vcNwhQFIx9QEsGpkMY-a-189" value="" style="endArrow=none;html=1;rounded=0;entryX=0.5;entryY=0;entryDx=0;entryDy=0;" edge="1" parent="1" source="vcNwhQFIx9QEsGpkMY-a-182" target="vcNwhQFIx9QEsGpkMY-a-23">
          <mxGeometry width="50" height="50" relative="1" as="geometry">
            <mxPoint x="710" y="1880" as="sourcePoint" />
            <mxPoint x="760" y="1830" as="targetPoint" />
          </mxGeometry>
        </mxCell>
        <mxCell id="vcNwhQFIx9QEsGpkMY-a-190" value="" style="endArrow=none;html=1;rounded=0;" edge="1" parent="1" source="vcNwhQFIx9QEsGpkMY-a-182" target="vcNwhQFIx9QEsGpkMY-a-113">
          <mxGeometry width="50" height="50" relative="1" as="geometry">
            <mxPoint x="730" y="1160" as="sourcePoint" />
            <mxPoint x="780" y="1110" as="targetPoint" />
          </mxGeometry>
        </mxCell>
        <mxCell id="vcNwhQFIx9QEsGpkMY-a-191" value="" style="endArrow=none;html=1;rounded=0;" edge="1" parent="1" source="vcNwhQFIx9QEsGpkMY-a-182" target="vcNwhQFIx9QEsGpkMY-a-131">
          <mxGeometry width="50" height="50" relative="1" as="geometry">
            <mxPoint x="730" y="1160" as="sourcePoint" />
            <mxPoint x="780" y="1110" as="targetPoint" />
          </mxGeometry>
        </mxCell>
        <mxCell id="vcNwhQFIx9QEsGpkMY-a-192" value="" style="endArrow=none;html=1;rounded=0;" edge="1" parent="1" source="vcNwhQFIx9QEsGpkMY-a-182" target="vcNwhQFIx9QEsGpkMY-a-155">
          <mxGeometry width="50" height="50" relative="1" as="geometry">
            <mxPoint x="730" y="1160" as="sourcePoint" />
            <mxPoint x="780" y="1110" as="targetPoint" />
          </mxGeometry>
        </mxCell>
        <mxCell id="vcNwhQFIx9QEsGpkMY-a-193" value="" style="endArrow=none;html=1;rounded=0;exitX=0.5;exitY=1;exitDx=0;exitDy=0;" edge="1" parent="1" source="vcNwhQFIx9QEsGpkMY-a-167" target="vcNwhQFIx9QEsGpkMY-a-182">
          <mxGeometry width="50" height="50" relative="1" as="geometry">
            <mxPoint x="730" y="1160" as="sourcePoint" />
            <mxPoint x="780" y="1110" as="targetPoint" />
          </mxGeometry>
        </mxCell>
        <mxCell id="vcNwhQFIx9QEsGpkMY-a-194" value="" style="endArrow=none;html=1;rounded=0;" edge="1" parent="1" source="vcNwhQFIx9QEsGpkMY-a-180" target="vcNwhQFIx9QEsGpkMY-a-182">
          <mxGeometry width="50" height="50" relative="1" as="geometry">
            <mxPoint x="1340" y="1630" as="sourcePoint" />
            <mxPoint x="1390" y="1580" as="targetPoint" />
          </mxGeometry>
        </mxCell>
        <mxCell id="vcNwhQFIx9QEsGpkMY-a-195" value="" style="endArrow=none;html=1;rounded=0;" edge="1" parent="1" source="vcNwhQFIx9QEsGpkMY-a-178" target="vcNwhQFIx9QEsGpkMY-a-182">
          <mxGeometry width="50" height="50" relative="1" as="geometry">
            <mxPoint x="-260" y="2070" as="sourcePoint" />
            <mxPoint x="-210" y="2020" as="targetPoint" />
          </mxGeometry>
        </mxCell>
        <mxCell id="vcNwhQFIx9QEsGpkMY-a-196" value="" style="image;html=1;image=img/lib/clip_art/telecommunication/Signal_tower_on_128x128.png" vertex="1" parent="1">
          <mxGeometry x="-1227" y="2200" width="400" height="462" as="geometry" />
        </mxCell>
        <mxCell id="vcNwhQFIx9QEsGpkMY-a-197" value="" style="edgeStyle=isometricEdgeStyle;endArrow=none;html=1;rounded=0;" edge="1" parent="1" source="vcNwhQFIx9QEsGpkMY-a-196" target="vcNwhQFIx9QEsGpkMY-a-178">
          <mxGeometry width="50" height="100" relative="1" as="geometry">
            <mxPoint x="-260" y="2530" as="sourcePoint" />
            <mxPoint x="-210" y="2430" as="targetPoint" />
          </mxGeometry>
        </mxCell>
        <mxCell id="vcNwhQFIx9QEsGpkMY-a-198" value="" style="image;html=1;image=img/lib/clip_art/telecommunication/iPhone_128x128.png;fontStyle=1" vertex="1" parent="1">
          <mxGeometry x="155" y="2620" width="87" height="170" as="geometry" />
        </mxCell>
        <mxCell id="vcNwhQFIx9QEsGpkMY-a-199" value="" style="image;html=1;image=img/lib/clip_art/telecommunication/iPhone_128x128.png" vertex="1" parent="1">
          <mxGeometry x="490" y="2620" width="90" height="150" as="geometry" />
        </mxCell>
        <mxCell id="vcNwhQFIx9QEsGpkMY-a-200" value="" style="image;html=1;image=img/lib/clip_art/telecommunication/iPhone_128x128.png" vertex="1" parent="1">
          <mxGeometry x="840" y="2605" width="70" height="170" as="geometry" />
        </mxCell>
        <mxCell id="vcNwhQFIx9QEsGpkMY-a-201" value="" style="endArrow=none;dashed=1;html=1;dashPattern=1 3;strokeWidth=2;rounded=0;entryX=0.25;entryY=1;entryDx=0;entryDy=0;" edge="1" parent="1" source="vcNwhQFIx9QEsGpkMY-a-196" target="vcNwhQFIx9QEsGpkMY-a-198">
          <mxGeometry width="50" height="50" relative="1" as="geometry">
            <mxPoint x="300" y="2400" as="sourcePoint" />
            <mxPoint x="350" y="2350" as="targetPoint" />
          </mxGeometry>
        </mxCell>
        <mxCell id="vcNwhQFIx9QEsGpkMY-a-202" value="" style="endArrow=none;dashed=1;html=1;dashPattern=1 3;strokeWidth=2;rounded=0;entryX=0.25;entryY=1;entryDx=0;entryDy=0;exitX=1;exitY=0.5;exitDx=0;exitDy=0;" edge="1" parent="1" source="vcNwhQFIx9QEsGpkMY-a-196" target="vcNwhQFIx9QEsGpkMY-a-199">
          <mxGeometry width="50" height="50" relative="1" as="geometry">
            <mxPoint x="380" y="2510" as="sourcePoint" />
            <mxPoint x="430" y="2460" as="targetPoint" />
          </mxGeometry>
        </mxCell>
        <mxCell id="vcNwhQFIx9QEsGpkMY-a-203" value="" style="endArrow=none;dashed=1;html=1;dashPattern=1 3;strokeWidth=2;rounded=0;exitX=1.032;exitY=0.449;exitDx=0;exitDy=0;exitPerimeter=0;" edge="1" parent="1" source="vcNwhQFIx9QEsGpkMY-a-196" target="vcNwhQFIx9QEsGpkMY-a-200">
          <mxGeometry width="50" height="50" relative="1" as="geometry">
            <mxPoint x="380" y="2510" as="sourcePoint" />
            <mxPoint x="430" y="2460" as="targetPoint" />
          </mxGeometry>
        </mxCell>
      </root>
    </mxGraphModel>
  </diagram>
</mxfile>
